<svg xmlns="http://www.w3.org/2000/svg" xmlns:xlink="http://www.w3.org/1999/xlink" width="500" zoomAndPan="magnify" viewBox="0 0 375 374.999991" height="500" preserveAspectRatio="xMidYMid meet" version="1.0"><defs><filter x="0%" y="0%" width="100%" height="100%" id="572f7516c5"><feColorMatrix values="0 0 0 0 1 0 0 0 0 1 0 0 0 0 1 0 0 0 1 0" color-interpolation-filters="sRGB"/></filter><mask id="8dc2d199e7"><g filter="url(#572f7516c5)"><rect x="-37.5" width="450" fill="#000000" y="-37.499999" height="449.999989" fill-opacity="0.96"/></g></mask><clipPath id="e4d4de5a00"><path d="M 0.355469 1.007812 L 179.222656 1.007812 L 179.222656 231.808594 L 0.355469 231.808594 Z M 0.355469 1.007812 " clip-rule="nonzero"/></clipPath><clipPath id="a714b204f5"><rect x="0" width="180" y="0" height="232"/></clipPath><clipPath id="8d3267428a"><path d="M 148.3125 75.492188 L 226.78125 75.492188 L 226.78125 188.585938 L 148.3125 188.585938 Z M 148.3125 75.492188 " clip-rule="nonzero"/></clipPath><clipPath id="a55160f63f"><path d="M 163.546875 90.03125 L 210.570312 90.03125 L 210.570312 137.054688 L 163.546875 137.054688 Z M 163.546875 90.03125 " clip-rule="nonzero"/></clipPath><clipPath id="f2d0ca2296"><path d="M 187.058594 90.03125 C 174.074219 90.03125 163.546875 100.558594 163.546875 113.542969 C 163.546875 126.527344 174.074219 137.054688 187.058594 137.054688 C 200.042969 137.054688 210.570312 126.527344 210.570312 113.542969 C 210.570312 100.558594 200.042969 90.03125 187.058594 90.03125 Z M 187.058594 90.03125 " clip-rule="nonzero"/></clipPath><clipPath id="dc21e52c4b"><path d="M 172.777344 99.261719 L 201.339844 99.261719 L 201.339844 127.824219 L 172.777344 127.824219 Z M 172.777344 99.261719 " clip-rule="nonzero"/></clipPath><clipPath id="5d5c18a9ef"><path d="M 187.058594 99.261719 C 179.171875 99.261719 172.777344 105.65625 172.777344 113.542969 C 172.777344 121.429688 179.171875 127.824219 187.058594 127.824219 C 194.945312 127.824219 201.339844 121.429688 201.339844 113.542969 C 201.339844 105.65625 194.945312 99.261719 187.058594 99.261719 Z M 187.058594 99.261719 " clip-rule="nonzero"/></clipPath></defs><rect x="-37.5" width="450" fill="#ffffff" y="-37.499999" height="449.999989" fill-opacity="1"/><rect x="-37.5" width="450" fill="#ffed00" y="-37.499999" height="449.999989" fill-opacity="1"/><g mask="url(#8dc2d199e7)"><g transform="matrix(1, 0, 0, 1, 98, 63)"><g clip-path="url(#a714b204f5)"><path fill="#000000" d="M 79.492188 32.003906 C 89.027344 28.066406 100.011719 30.242188 107.308594 37.519531 C 114.609375 44.792969 116.792969 55.734375 112.84375 65.25 C 108.890625 74.753906 99.585938 80.953125 89.257812 80.953125 C 75.167969 80.9375 63.746094 69.558594 63.734375 55.511719 C 63.734375 45.21875 69.953125 35.941406 79.492188 32.003906 Z M 85.808594 118.433594 C 86.621094 119.519531 87.898438 120.164062 89.257812 120.164062 C 90.621094 120.164062 91.898438 119.519531 92.710938 118.433594 C 97.648438 111.832031 106.085938 99.074219 113.617188 84.84375 C 121.5 69.945312 125.847656 58.109375 125.847656 51.519531 C 125.824219 31.386719 109.453125 15.074219 89.257812 15.050781 C 69.0625 15.074219 52.695312 31.386719 52.671875 51.519531 C 52.671875 58.109375 57.015625 69.945312 64.902344 84.84375 C 72.433594 99.074219 80.867188 111.832031 85.808594 118.433594 " fill-opacity="1" fill-rule="nonzero"/><path fill="#000000" d="M 112.398438 102.246094 C 107.0625 111.097656 101.941406 118.652344 98.75 122.921875 C 96.515625 125.910156 92.996094 127.667969 89.257812 127.667969 C 85.523438 127.667969 82.003906 125.910156 79.769531 122.921875 C 76.792969 118.945312 72.140625 112.101562 67.199219 104.019531 L 67.199219 131.425781 L 112.398438 131.425781 L 112.398438 102.246094 " fill-opacity="1" fill-rule="nonzero"/><path fill="#000000" d="M 101.683594 150.195312 L 104.277344 150.195312 C 108.757812 150.191406 112.386719 146.570312 112.398438 142.101562 L 112.398438 138.933594 L 93.5625 138.933594 L 93.5625 142.101562 C 93.570312 146.570312 97.199219 150.191406 101.683594 150.195312 " fill-opacity="1" fill-rule="nonzero"/><path fill="#000000" d="M 82.375 72.078125 C 89.097656 74.855469 96.835938 73.320312 101.984375 68.191406 C 107.132812 63.0625 108.667969 55.351562 105.886719 48.648438 C 103.101562 41.945312 96.539062 37.574219 89.257812 37.574219 C 79.324219 37.585938 71.277344 45.609375 71.265625 55.511719 C 71.265625 62.765625 75.648438 69.304688 82.375 72.078125 " fill-opacity="1" fill-rule="nonzero"/><path fill="#000000" d="M 119.925781 131.425781 L 138.757812 131.425781 L 138.757812 93.882812 L 119.925781 93.882812 L 119.925781 131.425781 " fill-opacity="1" fill-rule="nonzero"/><path fill="#000000" d="M 119.925781 142.101562 C 119.929688 146.570312 123.5625 150.191406 128.042969 150.195312 L 130.640625 150.195312 C 135.121094 150.191406 138.753906 146.570312 138.757812 142.101562 L 138.757812 138.933594 L 119.925781 138.933594 L 119.925781 142.101562 " fill-opacity="1" fill-rule="nonzero"/><path fill="#000000" d="M 67.199219 142.101562 C 67.203125 146.570312 70.839844 150.191406 75.320312 150.195312 L 77.914062 150.195312 C 82.394531 150.191406 86.027344 146.570312 86.03125 142.101562 L 86.03125 138.933594 L 67.199219 138.933594 L 67.199219 142.101562 " fill-opacity="1" fill-rule="nonzero"/><path fill="#000000" d="M 158.164062 93.882812 L 146.289062 93.882812 L 146.289062 131.425781 L 164.441406 131.425781 L 158.164062 93.882812 " fill-opacity="1" fill-rule="nonzero"/><path fill="#000000" d="M 130.640625 157.703125 L 128.042969 157.703125 C 123.472656 157.703125 119.128906 155.703125 116.160156 152.238281 C 113.195312 155.703125 108.851562 157.703125 104.277344 157.703125 L 101.683594 157.703125 C 97.109375 157.703125 92.765625 155.703125 89.796875 152.238281 C 86.828125 155.703125 82.484375 157.703125 77.914062 157.703125 L 75.320312 157.703125 C 70.746094 157.703125 66.402344 155.703125 63.433594 152.238281 C 60.464844 155.703125 56.121094 157.703125 51.550781 157.703125 L 48.957031 157.703125 C 44.382812 157.703125 40.039062 155.703125 37.070312 152.238281 C 34.234375 155.546875 30.136719 157.523438 25.773438 157.6875 L 25.773438 217.769531 L 59.667969 217.769531 L 59.667969 176.472656 C 59.667969 174.402344 61.355469 172.71875 63.433594 172.71875 L 116.160156 172.71875 C 118.242188 172.71875 119.925781 174.402344 119.925781 176.472656 L 119.925781 217.769531 L 153.820312 217.769531 L 153.820312 157.6875 C 149.457031 157.523438 145.359375 155.546875 142.523438 152.238281 C 139.558594 155.703125 135.214844 157.703125 130.640625 157.703125 " fill-opacity="1" fill-rule="nonzero"/><path fill="#000000" d="M 67.199219 217.769531 L 112.398438 217.769531 L 112.398438 180.226562 L 67.199219 180.226562 L 67.199219 217.769531 " fill-opacity="1" fill-rule="nonzero"/><g clip-path="url(#e4d4de5a00)"><path fill="#000000" d="M 172.65625 142.101562 C 172.640625 149.042969 168.042969 155.148438 161.351562 157.085938 L 161.351562 221.519531 C 161.351562 223.59375 159.667969 225.273438 157.589844 225.273438 L 22.003906 225.273438 C 19.925781 225.273438 18.238281 223.59375 18.238281 221.519531 L 18.238281 157.085938 C 11.554688 155.148438 6.949219 149.042969 6.941406 142.101562 L 6.941406 135.179688 L 6.945312 135.179688 C 6.945312 134.972656 6.960938 134.765625 6.992188 134.5625 L 14.527344 89.515625 C 14.824219 87.703125 16.398438 86.375 18.238281 86.375 L 57.191406 86.375 C 50.503906 73.5 45.136719 60.316406 45.136719 51.519531 C 45.136719 27.230469 64.890625 7.542969 89.257812 7.542969 C 113.621094 7.542969 133.375 27.230469 133.375 51.519531 C 133.375 60.316406 128.015625 73.5 121.324219 86.375 L 161.351562 86.375 C 163.195312 86.375 164.765625 87.703125 165.066406 89.515625 L 172.597656 134.5625 C 172.632812 134.765625 172.652344 134.972656 172.652344 135.179688 L 172.65625 135.179688 Z M 179.203125 135.179688 C 179.203125 134.609375 179.15625 134.046875 179.0625 133.492188 L 171.535156 88.441406 C 170.703125 83.457031 166.417969 79.84375 161.351562 79.84375 L 131.8125 79.84375 C 137.203125 68.023438 139.925781 58.519531 139.925781 51.519531 C 139.925781 23.667969 117.195312 1.007812 89.257812 1.007812 C 61.316406 1.007812 38.585938 23.667969 38.585938 51.519531 C 38.585938 58.519531 41.3125 68.019531 46.707031 79.84375 L 18.238281 79.84375 C 13.167969 79.84375 8.886719 83.464844 8.0625 88.441406 L 0.519531 133.554688 C 0.4375 134.070312 0.394531 134.585938 0.390625 135.179688 L 0.390625 142.113281 C 0.398438 150.152344 4.859375 157.492188 11.6875 161.363281 L 11.6875 221.519531 C 11.6875 227.195312 16.316406 231.808594 22.003906 231.808594 L 157.589844 231.808594 C 163.277344 231.808594 167.90625 227.195312 167.90625 221.519531 L 167.90625 161.367188 C 174.734375 157.496094 179.195312 150.152344 179.207031 142.097656 L 179.203125 135.179688 " fill-opacity="1" fill-rule="nonzero"/></g><path fill="#000000" d="M 59.667969 93.882812 L 40.835938 93.882812 L 40.835938 131.425781 L 59.667969 131.425781 L 59.667969 93.882812 " fill-opacity="1" fill-rule="nonzero"/><path fill="#000000" d="M 146.289062 142.101562 C 146.296875 146.570312 149.925781 150.191406 154.40625 150.195312 L 157.003906 150.195312 C 161.484375 150.191406 165.117188 146.570312 165.121094 142.101562 L 165.121094 138.933594 L 146.289062 138.933594 L 146.289062 142.101562 " fill-opacity="1" fill-rule="nonzero"/><path fill="#000000" d="M 48.957031 150.195312 L 51.550781 150.195312 C 56.03125 150.191406 59.664062 146.570312 59.667969 142.101562 L 59.667969 138.933594 L 40.835938 138.933594 L 40.835938 142.101562 C 40.84375 146.570312 44.472656 150.191406 48.957031 150.195312 " fill-opacity="1" fill-rule="nonzero"/><path fill="#000000" d="M 33.304688 93.882812 L 21.429688 93.882812 L 15.152344 131.425781 L 33.304688 131.425781 L 33.304688 93.882812 " fill-opacity="1" fill-rule="nonzero"/><path fill="#000000" d="M 33.304688 142.101562 L 33.304688 138.933594 L 14.472656 138.933594 L 14.472656 142.101562 C 14.480469 146.570312 18.109375 150.191406 22.59375 150.195312 L 25.183594 150.195312 C 29.667969 150.191406 33.300781 146.570312 33.304688 142.101562 " fill-opacity="1" fill-rule="nonzero"/></g></g></g><g clip-path="url(#8d3267428a)"><path fill="#dd0034" d="M 187.496094 75.480469 C 165.863281 75.480469 148.335938 93.011719 148.335938 114.636719 C 148.335938 118.234375 148.832031 121.714844 149.742188 125.023438 C 150.53125 127.902344 151.632812 130.65625 153.027344 133.230469 C 153.363281 133.851562 153.71875 134.464844 154.085938 135.066406 L 183.605469 186.203125 C 183.667969 186.3125 183.726562 186.425781 183.796875 186.535156 C 184.609375 187.707031 185.960938 188.472656 187.492188 188.472656 C 189.027344 188.472656 190.382812 187.695312 191.191406 186.519531 L 191.320312 186.300781 L 220.894531 135.078125 L 221.960938 133.226562 C 223.351562 130.652344 224.453125 127.898438 225.246094 125.023438 C 226.152344 121.714844 226.648438 118.234375 226.648438 114.636719 C 226.648438 93.011719 209.117188 75.480469 187.496094 75.480469 Z M 187.492188 131.050781 C 178.421875 131.050781 171.070312 123.703125 171.070312 114.636719 C 171.070312 105.566406 178.421875 98.214844 187.492188 98.214844 C 196.558594 98.214844 203.90625 105.566406 203.90625 114.636719 C 203.90625 123.703125 196.558594 131.050781 187.492188 131.050781 Z M 187.492188 131.050781 " fill-opacity="1" fill-rule="nonzero"/></g><g clip-path="url(#a55160f63f)"><g clip-path="url(#f2d0ca2296)"><path fill="#ffed00" d="M 163.546875 90.03125 L 210.570312 90.03125 L 210.570312 137.054688 L 163.546875 137.054688 Z M 163.546875 90.03125 " fill-opacity="1" fill-rule="nonzero"/></g></g><g clip-path="url(#dc21e52c4b)"><g clip-path="url(#5d5c18a9ef)"><path fill="#000000" d="M 172.777344 99.261719 L 201.339844 99.261719 L 201.339844 127.824219 L 172.777344 127.824219 Z M 172.777344 99.261719 " fill-opacity="1" fill-rule="nonzero"/></g></g></svg>