<svg width="160" height="64" viewBox="0 0 160 64" fill="none" xmlns="http://www.w3.org/2000/svg">
<path fill-rule="evenodd" clip-rule="evenodd" d="M38.4317 11.6023C43.0205 11.6023 46.7399 14.6121 46.7399 18.3251C46.7399 22.038 43.0205 25.0504 38.4317 25.0504C34.9213 25.0504 31.9258 23.2799 30.7124 20.7936C30.181 23.0878 29.0064 25.1861 27.3243 26.8462C29.9756 29.1908 33.6976 30.64 37.8428 30.64C45.8859 30.64 52.4045 25.1212 52.4045 18.315C52.4045 11.5087 45.8859 6 37.8428 6C33.7053 6 29.9756 7.46191 27.3243 9.80654C29.0064 11.4666 30.181 13.5649 30.7124 15.8591C31.9258 13.3677 34.9213 11.6023 38.4317 11.6023ZM46.7399 44.6724C46.7399 40.9595 43.0205 37.9497 38.4317 37.9497C34.9213 37.9497 31.9258 39.7202 30.7124 42.1811C30.181 39.887 29.0064 37.7887 27.3243 36.1286C29.9756 33.7966 33.7053 32.3347 37.8428 32.3347C45.8859 32.3347 52.4045 37.8536 52.4045 44.6598C52.4045 51.466 45.8859 56.9849 37.8428 56.9849C33.6976 56.9849 29.9756 55.5356 27.3243 53.191C29.007 51.5313 30.1816 49.4329 30.7124 47.1385C31.9258 49.6247 34.9213 51.3952 38.4317 51.3952C43.0205 51.3952 46.7399 48.3854 46.7399 44.6724ZM6.66715 44.6749C6.66715 48.3879 10.3841 51.3977 14.9728 51.3977V51.4205C18.4833 51.4205 21.4762 49.6551 22.6922 47.1663C23.224 49.4601 24.3995 51.5577 26.0828 53.2163C23.4315 55.5482 19.6993 57.0102 15.5643 57.0102C7.52117 57.0102 1 51.4913 1 44.6851C1 37.8788 7.52117 32.36 15.5643 32.36C19.7095 32.36 23.4315 33.8093 26.0828 36.1539C24.3995 37.8125 23.224 39.91 22.6922 42.2039C21.4762 39.7201 18.4833 37.9496 14.9728 37.9496C10.3866 37.9496 6.66715 40.962 6.66715 44.6749ZM6.66715 18.3284C6.66715 22.0414 10.3841 25.0512 14.9728 25.0512C18.4832 25.0512 21.4762 23.2807 22.6973 20.8071C23.2291 23.1009 24.4046 25.1985 26.0879 26.8571C23.4366 29.1891 19.7044 30.651 15.5694 30.651C7.52117 30.651 1 25.1473 1 18.3411C1 11.5348 7.52117 6.01599 15.5643 6.01599C19.7095 6.01599 23.4315 7.46526 26.0828 9.80988C24.3995 11.4685 23.2239 13.566 22.6922 15.8599C21.4762 13.3761 18.4832 11.6057 14.9728 11.6057C10.3866 11.6057 6.66715 14.6155 6.66715 18.3284Z" fill="#DD0034"/>
<path d="M67.0809 23.2015C66.2647 23.2067 65.4556 23.052 64.6998 22.7463C63.9866 22.463 63.3368 22.0427 62.7878 21.5095C62.248 20.9744 61.8207 20.3382 61.531 19.6378C61.22 18.8993 61.0622 18.1062 61.0671 17.3058C61.0548 16.2555 61.3249 15.2209 61.8497 14.3086C62.3598 13.4198 63.1057 12.6868 64.0064 12.1891C64.9428 11.6778 65.9969 11.4163 67.0656 11.4303C68.0762 11.4205 69.0738 11.6558 69.9718 12.1158C70.8316 12.5523 71.5658 13.198 72.1056 13.9925L70.4103 15.0295C70.048 14.5046 69.5601 14.077 68.9903 13.7851C68.3953 13.4814 67.7347 13.326 67.0656 13.3324C66.5381 13.3183 66.0132 13.4121 65.5238 13.6079C65.0343 13.8037 64.5907 14.0973 64.2206 14.4705C63.8459 14.8432 63.5516 15.2877 63.3557 15.7769C63.1598 16.2661 63.0663 16.7897 63.081 17.3159C63.0667 17.8433 63.1609 18.368 63.3577 18.858C63.5545 19.3481 63.8498 19.7933 64.2257 20.1664C64.594 20.541 65.0364 20.8359 65.5251 21.0326C66.0139 21.2294 66.5384 21.3237 67.0656 21.3096C67.7349 21.3177 68.3959 21.1622 68.9903 20.8569C69.5601 20.565 70.048 20.1374 70.4103 19.6125L72.1056 20.6495C71.5701 21.4409 70.8413 22.0848 69.9871 22.5212C69.0896 22.9823 68.0916 23.2177 67.0809 23.2066" fill="black"/>
<path d="M80.8091 11.3241L78.7161 13.6004H76.7531L78.451 11.3241H80.8091ZM77.5867 21.4133C77.9335 21.4222 78.2782 21.3594 78.5991 21.2287C78.92 21.0981 79.2099 20.9025 79.4503 20.6545C79.694 20.4093 79.8853 20.1178 80.0127 19.7975C80.1402 19.4772 80.2012 19.1347 80.1921 18.7905C80.2015 18.4451 80.1407 18.1013 80.0132 17.7797C79.8858 17.4582 79.6943 17.1654 79.4503 16.9188C79.2097 16.6711 78.9197 16.4757 78.5989 16.345C78.2781 16.2144 77.9334 16.1514 77.5867 16.16C77.2379 16.1522 76.8912 16.2155 76.568 16.346C76.2448 16.4766 75.9521 16.6715 75.7079 16.9188C75.4619 17.1643 75.2686 17.4567 75.1398 17.7784C75.011 18.1001 74.9493 18.4444 74.9584 18.7905C74.9496 19.1353 75.0114 19.4784 75.1403 19.7988C75.2691 20.1193 75.4622 20.4104 75.7079 20.6545C75.9515 20.9026 76.2441 21.098 76.5674 21.2286C76.8908 21.3592 77.2378 21.4221 77.5867 21.4133ZM80.1921 14.5843H82.0582V22.9992H80.1921V21.7927C79.8458 22.2451 79.3957 22.6089 78.8791 22.854C78.3626 23.099 77.7945 23.2181 77.2222 23.2015C76.4706 23.2107 75.7315 23.0109 75.0884 22.6248C74.4519 22.2445 73.9333 21.6975 73.5894 21.044C73.2252 20.3503 73.0403 19.5777 73.0515 18.7955C73.0406 18.0142 73.2255 17.2425 73.5894 16.5495C73.9326 15.8956 74.4514 15.3485 75.0884 14.9688C75.7315 14.5827 76.4706 14.3829 77.2222 14.3921C77.7939 14.3739 78.3618 14.4916 78.8784 14.7354C79.395 14.9791 79.8455 15.3418 80.1921 15.7933V14.5843Z" fill="black"/>
<path d="M94.0451 14.392C94.4686 14.372 94.8918 14.4382 95.2885 14.5866C95.6853 14.7349 96.0473 14.9622 96.3522 15.2545C96.6445 15.5559 96.8721 15.9131 97.0211 16.3044C97.1701 16.6957 97.2374 17.113 97.219 17.5308V22.9991H95.3631V18.0873C95.3754 17.8334 95.3367 17.5797 95.2491 17.3409C95.1616 17.102 95.027 16.8829 94.8532 16.6962C94.675 16.5197 94.4617 16.382 94.2269 16.2919C93.992 16.2017 93.7408 16.1611 93.4893 16.1726C93.2207 16.1586 92.9521 16.1983 92.6993 16.2896C92.4466 16.3809 92.215 16.5217 92.0184 16.7038C91.8328 16.8879 91.6876 17.108 91.5919 17.3505C91.4963 17.5929 91.4523 17.8524 91.4626 18.1126V22.9991H89.6042V18.0873C89.6175 17.8333 89.5792 17.5793 89.4916 17.3404C89.404 17.1014 89.2689 16.8823 89.0943 16.6962C88.9139 16.5183 88.6981 16.3798 88.4605 16.2896C88.223 16.1995 87.9691 16.1596 87.7151 16.1726C87.4515 16.1618 87.1884 16.2032 86.9411 16.2944C86.6937 16.3856 86.4672 16.5248 86.2747 16.7038C86.0877 16.8879 85.9414 17.1088 85.8453 17.3523C85.7491 17.5957 85.7052 17.8564 85.7164 18.1176V22.9991H83.8503V14.5944H85.7164V15.5757C86.0299 15.1886 86.4305 14.8798 86.8861 14.6743C87.3417 14.4687 87.8396 14.372 88.3397 14.392C88.9083 14.38 89.4704 14.5142 89.9713 14.7815C90.4338 15.0343 90.8134 15.4135 91.0649 15.8742C91.7447 14.8861 92.7381 14.392 94.0451 14.392Z" fill="black"/>
<path d="M102.942 21.4133C103.289 21.422 103.633 21.3591 103.953 21.2284C104.274 21.0978 104.563 20.9023 104.803 20.6545C105.049 20.4111 105.243 20.121 105.373 19.8016C105.503 19.4821 105.567 19.14 105.56 18.7955C105.569 18.4499 105.508 18.1061 105.38 17.7846C105.252 17.463 105.06 17.1703 104.816 16.9239C104.576 16.6764 104.286 16.4812 103.966 16.3506C103.645 16.22 103.301 16.1568 102.955 16.1651C102.606 16.1573 102.259 16.2206 101.936 16.3511C101.613 16.4816 101.32 16.6766 101.076 16.9239C100.827 17.1678 100.631 17.4596 100.499 17.7814C100.368 18.1033 100.304 18.4483 100.311 18.7955C100.303 19.1416 100.367 19.4856 100.499 19.8063C100.63 20.1269 100.827 20.4173 101.076 20.6596C101.32 20.9079 101.612 21.1035 101.935 21.2341C102.259 21.3647 102.606 21.4274 102.955 21.4184L102.942 21.4133ZM105.56 14.5894H107.426V22.9991H105.56V21.7927C105.214 22.2451 104.763 22.6089 104.246 22.854C103.729 23.099 103.161 23.2181 102.588 23.2015C101.836 23.2099 101.097 23.0102 100.454 22.6248C99.8189 22.2436 99.3013 21.6968 98.9576 21.044C98.5926 20.3505 98.4069 19.5779 98.4172 18.7955C98.4072 18.014 98.5929 17.2423 98.9576 16.5495C99.3006 15.8962 99.8183 15.3493 100.454 14.9687C101.097 14.5834 101.836 14.3837 102.588 14.3921C103.16 14.3739 103.728 14.4916 104.245 14.7354C104.762 14.9791 105.213 15.3418 105.56 15.7933V14.5894Z" fill="black"/>
<path d="M113.718 14.4553H114.037V16.3573H113.718C113.366 16.3373 113.013 16.3879 112.68 16.5061C112.348 16.6243 112.043 16.8076 111.783 17.0453C111.544 17.2921 111.359 17.5848 111.238 17.9053C111.118 18.2259 111.065 18.5676 111.082 18.9093V22.9992H109.216V14.5944H111.082V15.8262C111.372 15.3986 111.765 15.0494 112.225 14.8101C112.686 14.5708 113.199 14.4489 113.718 14.4553Z" fill="black"/>
<path d="M118.868 21.4133C119.215 21.4222 119.559 21.3594 119.88 21.2287C120.201 21.0981 120.491 20.9025 120.732 20.6545C120.975 20.4093 121.167 20.1178 121.294 19.7975C121.421 19.4772 121.482 19.1347 121.473 18.7905C121.483 18.445 121.422 18.1013 121.294 17.7797C121.167 17.4582 120.976 17.1654 120.732 16.9188C120.491 16.6711 120.201 16.4757 119.88 16.345C119.559 16.2144 119.215 16.1514 118.868 16.16C118.519 16.1522 118.172 16.2155 117.849 16.346C117.526 16.4765 117.233 16.6715 116.989 16.9188C116.743 17.1643 116.55 17.4567 116.421 17.7784C116.292 18.1001 116.231 18.4444 116.24 18.7905C116.231 19.1353 116.293 19.4784 116.422 19.7988C116.55 20.1193 116.743 20.4104 116.989 20.6545C117.233 20.9026 117.525 21.098 117.849 21.2286C118.172 21.3592 118.519 21.422 118.868 21.4133ZM121.473 14.5843H123.339V22.9992H121.473V21.7927C121.127 22.2451 120.677 22.6089 120.16 22.8539C119.644 23.099 119.076 23.2181 118.503 23.2015C117.752 23.2107 117.013 23.0109 116.37 22.6248C115.734 22.2431 115.216 21.6965 114.871 21.044C114.506 20.3503 114.322 19.5777 114.333 18.7955C114.322 18.0142 114.507 17.2425 114.871 16.5495C115.215 15.8961 115.733 15.3492 116.37 14.9688C117.013 14.5826 117.752 14.3829 118.503 14.3921C119.075 14.3739 119.643 14.4916 120.16 14.7354C120.676 14.9791 121.127 15.3418 121.473 15.7933V14.5843Z" fill="black"/>
<path d="M65.5719 36.7761C65.9185 36.7844 66.2631 36.7213 66.5839 36.5907C66.9047 36.46 67.1946 36.2648 67.4355 36.0173C67.6789 35.7719 67.87 35.4804 67.9975 35.1601C68.125 34.8399 68.1861 34.4975 68.1773 34.1532C68.1868 33.8078 68.1261 33.464 67.9986 33.1424C67.8711 32.8208 67.6796 32.5281 67.4355 32.2816C67.1949 32.0337 66.905 31.8382 66.5842 31.7076C66.2633 31.577 65.9186 31.514 65.5719 31.5228C65.2229 31.5138 64.8758 31.5765 64.5524 31.7071C64.2291 31.8377 63.9365 32.0333 63.6931 32.2816C63.4468 32.5269 63.2534 32.8193 63.1246 33.1411C62.9957 33.4628 62.9341 33.8072 62.9436 34.1532C62.9349 34.4981 62.9968 34.8411 63.1257 35.1615C63.2545 35.4819 63.4475 35.7731 63.6931 36.0173C63.9372 36.2646 64.23 36.4596 64.5531 36.5901C64.8763 36.7206 65.2231 36.7839 65.5719 36.7761ZM68.1773 26.4871H70.0434V38.3746H68.1773V37.1656C67.831 37.618 67.3809 37.9818 66.8643 38.2269C66.3477 38.4719 65.7797 38.591 65.2074 38.5744C64.4554 38.5828 63.7159 38.3841 63.071 38.0003C62.4362 37.6175 61.9188 37.0701 61.5746 36.4169C61.2093 35.7244 61.0235 34.9525 61.0341 34.171C61.0238 33.3886 61.2095 32.616 61.5746 31.9224C61.9183 31.2696 62.4359 30.7229 63.071 30.3417C63.7151 29.9558 64.455 29.7561 65.2074 29.765C65.7791 29.7468 66.347 29.8645 66.8636 30.1083C67.3802 30.352 67.8306 30.7147 68.1773 31.1662V26.4871Z" fill="black"/>
<path d="M75.6977 31.4216C75.126 31.411 74.5692 31.6029 74.1273 31.9628C73.6771 32.3254 73.3613 32.8265 73.2299 33.3868H78.1731C78.0482 32.8257 77.7344 32.3234 77.2834 31.9628C76.8354 31.603 76.274 31.4113 75.6977 31.4216ZM80.1615 34.176C80.1614 34.4188 80.1444 34.6613 80.1106 34.9018H73.2452C73.3828 35.4832 73.7233 35.9974 74.2063 36.3536C74.7182 36.7242 75.3396 36.9155 75.973 36.8974C76.4856 36.9016 76.9923 36.7891 77.4542 36.5686C77.8706 36.3798 78.2359 36.0955 78.5198 35.739L79.7791 36.8089C79.3335 37.3625 78.7622 37.8036 78.1119 38.0963C77.4264 38.4102 76.6795 38.57 75.9246 38.5642C75.3099 38.5846 74.6974 38.4832 74.1227 38.2661C73.548 38.0489 73.0226 37.7204 72.5773 37.2996C72.1427 36.8952 71.799 36.4043 71.5688 35.8591C71.3386 35.3138 71.2271 34.7265 71.2415 34.1355C71.2315 33.3551 71.4332 32.5864 71.8253 31.9097C72.2077 31.246 72.7657 30.6985 73.439 30.3264C74.135 29.9432 74.9196 29.7462 75.7155 29.7548C76.304 29.7387 76.8896 29.8426 77.436 30.0601C77.9824 30.2776 78.478 30.6042 78.892 31.0194C79.3107 31.4317 79.6397 31.9247 79.859 32.468C80.0782 33.0113 80.1829 33.5935 80.1666 34.1785" fill="black"/>
<path d="M90.9376 38.5642C90.1214 38.5694 89.3123 38.4147 88.5565 38.1089C87.8439 37.8257 87.1943 37.4063 86.6445 36.8747C86.1046 36.3387 85.6774 35.7016 85.3877 35.0005C85.0765 34.2629 84.9187 33.4706 84.9238 32.671C84.9112 31.6195 85.1823 30.5839 85.709 29.6713C86.2188 28.7812 86.967 28.0485 87.8708 27.5543C88.8066 27.0418 89.8611 26.7802 90.9299 26.7956C91.9403 26.7849 92.938 27.0194 93.8362 27.4785C94.6976 27.9133 95.4342 28.5571 95.9776 29.3501L94.2823 30.3896C93.9206 29.8642 93.4326 29.4365 92.8623 29.1452C92.2681 28.8391 91.6071 28.6827 90.9376 28.69C90.4105 28.6761 89.8861 28.77 89.3971 28.9658C88.9081 29.1616 88.4649 29.4552 88.0951 29.8281C87.7198 30.2001 87.4248 30.644 87.228 31.1328C87.0312 31.6215 86.9368 32.1449 86.9505 32.671C86.9363 33.1983 87.0305 33.723 87.2273 34.2131C87.4241 34.7031 87.7194 35.1483 88.0951 35.5215C88.4643 35.895 88.9068 36.1892 89.3954 36.3858C89.8839 36.5825 90.408 36.6774 90.935 36.6647C91.6046 36.672 92.2656 36.5157 92.8598 36.2095C93.43 35.9182 93.9181 35.4905 94.2797 34.9651L95.975 36.0046C95.435 36.7983 94.7009 37.4432 93.8413 37.8788C92.9437 38.3399 91.9457 38.5753 90.935 38.5642" fill="black"/>
<path d="M99.2077 36.0248C99.4515 36.2718 99.7439 36.4666 100.067 36.5971C100.389 36.7276 100.736 36.7911 101.084 36.7836C101.43 36.7922 101.775 36.7292 102.095 36.5985C102.415 36.4679 102.705 36.2725 102.945 36.0248C103.189 35.78 103.381 35.4886 103.509 35.1683C103.637 34.848 103.698 34.5052 103.689 34.1608C103.699 33.8151 103.638 33.4711 103.51 33.1494C103.382 32.8278 103.19 32.5351 102.945 32.2891C102.705 32.0411 102.416 31.8454 102.095 31.7148C101.775 31.5841 101.43 31.5213 101.084 31.5303C100.736 31.5229 100.389 31.5863 100.067 31.7169C99.7439 31.8474 99.4515 32.0421 99.2077 32.2891C98.9592 32.533 98.7633 32.8245 98.6319 33.1458C98.5004 33.4671 98.4361 33.8115 98.4429 34.1583C98.4359 34.5042 98.5001 34.848 98.6316 35.1685C98.7631 35.489 98.9591 35.7795 99.2077 36.0223V36.0248ZM101.084 38.5516C100.486 38.5681 99.8906 38.4646 99.3338 38.2472C98.7771 38.0299 98.2702 37.7033 97.8438 37.2869C97.4215 36.882 97.0883 36.3948 96.8649 35.856C96.6416 35.3171 96.5331 34.7382 96.5462 34.1557C96.5318 33.5716 96.6397 32.9908 96.8631 32.4501C97.0864 31.9094 97.4204 31.4205 97.8438 31.0144C98.2702 30.598 98.7771 30.2714 99.3338 30.0541C99.8906 29.8368 100.486 29.7333 101.084 29.7497C101.89 29.7402 102.685 29.9389 103.391 30.3264C104.073 30.6967 104.639 31.2452 105.028 31.9123C105.425 32.5937 105.629 33.3687 105.619 34.1557C105.629 34.9419 105.424 35.716 105.028 36.3966C104.64 37.0648 104.074 37.6136 103.391 37.9825C102.685 38.37 101.89 38.5687 101.084 38.5592" fill="black"/>
<path d="M116.986 29.7548C117.41 29.7346 117.834 29.8004 118.231 29.9483C118.628 30.0961 118.99 30.3229 119.296 30.6147C119.588 30.9166 119.815 31.2739 119.963 31.6652C120.112 32.0564 120.179 32.4734 120.16 32.8911V38.3518H118.307V33.4526C118.32 33.1983 118.281 32.9441 118.194 32.7047C118.106 32.4654 117.971 32.2459 117.797 32.059C117.619 31.8825 117.406 31.7448 117.171 31.6546C116.936 31.5645 116.685 31.5239 116.433 31.5354C116.167 31.524 115.9 31.5657 115.65 31.6583C115.4 31.7508 115.172 31.8922 114.978 32.0741C114.792 32.2578 114.646 32.478 114.55 32.7205C114.455 32.963 114.411 33.2227 114.422 33.4829V38.3644H112.563V33.4526C112.577 33.1983 112.538 32.9439 112.451 32.7045C112.363 32.4651 112.228 32.2456 112.054 32.059C111.875 31.8824 111.661 31.7447 111.426 31.6546C111.191 31.5644 110.939 31.5238 110.687 31.5354C110.422 31.5241 110.157 31.5657 109.908 31.6578C109.66 31.7499 109.432 31.8906 109.239 32.0716C109.052 32.2554 108.907 32.4759 108.811 32.719C108.715 32.962 108.672 33.2222 108.683 33.4829V38.3644H106.815V29.9571H108.683V30.9385C108.996 30.5511 109.396 30.2421 109.851 30.0365C110.307 29.8309 110.804 29.7344 111.304 29.7548C111.873 29.7436 112.435 29.8786 112.936 30.1468C113.398 30.3992 113.779 30.7774 114.032 31.2369C114.712 30.2505 115.704 29.7565 117.009 29.7548" fill="black"/>
<path d="M125.787 31.4216C125.215 31.4118 124.659 31.6036 124.217 31.9628C123.768 32.3263 123.453 32.8271 123.322 33.3868H128.262C128.14 32.8253 127.827 32.3226 127.375 31.9628C126.926 31.6026 126.364 31.4109 125.787 31.4216ZM130.251 34.1759C130.251 34.4187 130.235 34.6613 130.202 34.9018H123.337C123.473 35.484 123.813 35.999 124.298 36.3536C124.81 36.7242 125.431 36.9155 126.065 36.8974C126.577 36.9016 127.084 36.7891 127.546 36.5686C127.962 36.3798 128.328 36.0954 128.612 35.739L129.871 36.8089C129.425 37.3625 128.854 37.8036 128.204 38.0963C127.518 38.41 126.771 38.5697 126.016 38.5642C125.401 38.5846 124.788 38.4833 124.213 38.2661C123.638 38.049 123.112 37.7204 122.667 37.2996C122.233 36.8947 121.89 36.4036 121.66 35.8585C121.43 35.3133 121.319 34.7262 121.333 34.1355C121.323 33.355 121.525 32.5863 121.917 31.9097C122.299 31.2485 122.856 30.7036 123.528 30.334C124.224 29.9508 125.009 29.7538 125.805 29.7624C126.393 29.7462 126.979 29.8501 127.525 30.0677C128.072 30.2852 128.567 30.6117 128.981 31.027C129.4 31.4393 129.729 31.9323 129.948 32.4756C130.167 33.0189 130.272 33.601 130.256 34.186" fill="black"/>
<path d="M135.997 29.8206H136.313V31.7201H135.997C135.644 31.7002 135.291 31.7508 134.959 31.869C134.627 31.9872 134.321 32.1705 134.062 32.408C133.822 32.6544 133.636 32.947 133.515 33.2676C133.394 33.5883 133.341 33.9301 133.358 34.2721V38.3644H131.492V29.9572H133.348V31.1889C133.639 30.7616 134.032 30.4128 134.493 30.174C134.954 29.9351 135.467 29.8137 135.987 29.8206" fill="black"/>
<path d="M141.113 38.5642C140.516 38.5807 139.921 38.4771 139.364 38.2598C138.808 38.0425 138.302 37.7159 137.876 37.2996C137.451 36.8935 137.117 36.4043 136.894 35.863C136.67 35.3218 136.563 34.7404 136.578 34.1557C136.563 33.5715 136.671 32.9905 136.894 32.4497C137.118 31.909 137.452 31.4202 137.876 31.0144C138.302 30.5981 138.808 30.2715 139.364 30.0542C139.921 29.8368 140.516 29.7333 141.113 29.7497C141.914 29.7381 142.705 29.9324 143.408 30.3138C144.069 30.6695 144.623 31.1932 145.014 31.8313L143.4 32.8051C143.176 32.4132 142.851 32.0883 142.457 31.8642C142.053 31.6325 141.593 31.5128 141.126 31.5177C140.778 31.5095 140.432 31.5727 140.109 31.7032C139.787 31.8338 139.495 32.0289 139.252 32.2765C139.003 32.52 138.807 32.8114 138.676 33.1328C138.544 33.4542 138.48 33.7988 138.488 34.1456C138.48 34.4917 138.543 34.8357 138.675 35.1563C138.807 35.477 139.003 35.7674 139.252 36.0097C139.496 36.2563 139.788 36.4509 140.11 36.5814C140.432 36.7119 140.778 36.7756 141.126 36.7684C141.59 36.7763 142.047 36.6601 142.449 36.432C142.84 36.2087 143.163 35.8866 143.387 35.4987L145.001 36.4649C144.611 37.1094 144.055 37.6392 143.39 38.0002C142.693 38.3808 141.909 38.576 141.113 38.5667" fill="black"/>
<path d="M146.003 29.9571H147.879V38.3644H146.01L146.003 29.9571ZM146.938 28.5306C146.782 28.5343 146.627 28.5063 146.482 28.4485C146.337 28.3907 146.205 28.3041 146.095 28.1942C145.984 28.0861 145.897 27.9568 145.839 27.8141C145.78 27.6715 145.752 27.5185 145.756 27.3646C145.75 27.2094 145.778 27.0547 145.836 26.9106C145.895 26.7664 145.983 26.6359 146.095 26.5274C146.206 26.4189 146.339 26.3337 146.484 26.2768C146.629 26.2199 146.785 26.1925 146.941 26.1961C147.098 26.1919 147.254 26.2191 147.401 26.276C147.547 26.3329 147.68 26.4184 147.792 26.5274C147.905 26.6358 147.993 26.7662 148.052 26.9104C148.111 27.0545 148.139 27.2092 148.134 27.3646C148.138 27.5192 148.109 27.6728 148.051 27.816C147.992 27.9591 147.904 28.0888 147.792 28.1967C147.681 28.3066 147.547 28.3928 147.401 28.4501C147.255 28.5075 147.098 28.5349 146.941 28.5306" fill="black"/>
<path d="M151.588 36.0248C151.832 36.2718 152.125 36.4666 152.447 36.5971C152.77 36.7276 153.116 36.791 153.465 36.7836C153.811 36.7918 154.155 36.7287 154.476 36.598C154.796 36.4674 155.085 36.2722 155.326 36.0248C155.57 35.779 155.762 35.4868 155.89 35.1656C156.018 34.8444 156.079 34.5009 156.07 34.1557C156.079 33.8101 156.018 33.4662 155.89 33.1446C155.762 32.823 155.57 32.5303 155.326 32.284C155.086 32.0362 154.796 31.8407 154.476 31.7101C154.155 31.5795 153.811 31.5165 153.465 31.5252C153.116 31.5178 152.77 31.5812 152.447 31.7117C152.125 31.8422 151.832 32.037 151.588 32.284C151.34 32.5279 151.144 32.8194 151.013 33.1407C150.881 33.462 150.817 33.8064 150.824 34.1531C150.817 34.4991 150.881 34.8429 151.012 35.1634C151.144 35.4839 151.34 35.7744 151.588 36.0172V36.0248ZM153.465 38.5465C152.867 38.563 152.271 38.4594 151.715 38.2421C151.158 38.0248 150.651 37.6982 150.225 37.2818C149.803 36.8775 149.47 36.3911 149.247 35.8532C149.023 35.3152 148.915 34.7373 148.927 34.1557C148.913 33.5723 149.022 32.9925 149.245 32.4528C149.468 31.913 149.802 31.425 150.225 31.0194C150.651 30.603 151.158 30.2764 151.715 30.0591C152.271 29.8418 152.867 29.7383 153.465 29.7548C154.275 29.7435 155.073 29.9422 155.782 30.3314C156.463 30.7017 157.03 31.2502 157.419 31.9173C157.811 32.5982 158.012 33.3713 158 34.1557C158.009 34.9418 157.805 35.7159 157.409 36.3966C157.024 37.0652 156.461 37.6157 155.782 37.9875C155.076 38.375 154.281 38.5737 153.475 38.5642" fill="black"/>
<path d="M65.5719 52.1413C65.9186 52.1501 66.2633 52.0871 66.5842 51.9565C66.905 51.8259 67.1949 51.6304 67.4355 51.3825C67.6791 51.1373 67.8704 50.8458 67.9979 50.5255C68.1254 50.2052 68.1864 49.8627 68.1773 49.5185C68.1868 49.173 68.1261 48.8292 67.9986 48.5076C67.8711 48.186 67.6796 47.8933 67.4355 47.6468C67.1946 47.3994 66.9046 47.2043 66.5838 47.0737C66.2631 46.9431 65.9185 46.8799 65.5719 46.888C65.2231 46.8802 64.8763 46.9435 64.5531 47.074C64.23 47.2045 63.9372 47.3995 63.6931 47.6468C63.4468 47.8921 63.2534 48.1845 63.1246 48.5063C62.9957 48.828 62.9341 49.1724 62.9436 49.5185C62.9347 49.8633 62.9966 50.2064 63.1255 50.5268C63.2543 50.8472 63.4474 51.1384 63.6931 51.3825C63.9365 51.6308 64.2291 51.8264 64.5524 51.957C64.8758 52.0876 65.2229 52.1503 65.5719 52.1413ZM68.1773 41.8497H70.0434V53.7373H68.1773V52.5182C67.8314 52.971 67.3814 53.3352 66.8647 53.5803C66.348 53.8253 65.7798 53.9442 65.2074 53.927C64.4553 53.9366 63.7154 53.7377 63.071 53.3528C62.4352 52.9713 61.9175 52.4235 61.5746 51.7695C61.2093 51.077 61.0235 50.3051 61.0341 49.5235C61.0235 48.7419 61.2093 47.9701 61.5746 47.2775C61.9188 46.6244 62.4362 46.0769 63.071 45.6942C63.7159 45.3104 64.4554 45.1116 65.2074 45.1201C65.7792 45.1015 66.3472 45.219 66.8639 45.4628C67.3806 45.7066 67.8309 46.0695 68.1773 46.5213V41.8497Z" fill="black"/>
<path d="M75.6977 46.7868C75.1265 46.7764 74.57 46.9673 74.1273 47.3256C73.6771 47.6882 73.3613 48.1892 73.2299 48.7495H78.1731C78.0482 48.1884 77.7344 47.6862 77.2834 47.3256C76.8346 46.9676 76.2735 46.7769 75.6977 46.7868ZM80.1616 49.5387C80.1615 49.7815 80.1445 50.0241 80.1106 50.2646H73.2452C73.3823 50.8468 73.7228 51.3621 74.2063 51.7189C74.719 52.0875 75.3401 52.2778 75.973 52.2601C76.4856 52.2643 76.9923 52.1518 77.4542 51.9313C77.8711 51.7434 78.2366 51.4589 78.5198 51.1017L79.7792 52.1716C79.3337 52.726 78.7624 53.168 78.1119 53.4615C77.4263 53.7747 76.6793 53.9336 75.9246 53.9269C75.3099 53.9473 74.6974 53.8459 74.1227 53.6288C73.548 53.4117 73.0226 53.0831 72.5773 52.6623C72.1427 52.2579 71.799 51.767 71.5688 51.2218C71.3386 50.6765 71.2271 50.0892 71.2415 49.4982C71.2318 48.7178 71.4334 47.9492 71.8253 47.2725C72.2075 46.6119 72.7647 46.0679 73.4364 45.6993C74.1319 45.3147 74.9168 45.1176 75.713 45.1276C76.3014 45.112 76.8869 45.2161 77.4332 45.4336C77.9795 45.6511 78.4751 45.9774 78.8894 46.3923C79.3074 46.8051 79.636 47.2982 79.8552 47.8414C80.0743 48.3846 80.1795 48.9664 80.1641 49.5513" fill="black"/>
<path d="M90.6394 51.9642C90.8558 51.9693 91.0709 51.9297 91.271 51.8478C91.4712 51.7659 91.6519 51.6437 91.8018 51.4887C91.9551 51.3338 92.0754 51.1498 92.1556 50.9477C92.2357 50.7457 92.2741 50.5297 92.2684 50.3126C92.2737 50.0975 92.2351 49.8835 92.1549 49.6836C92.0747 49.4837 91.9546 49.3019 91.8018 49.1492C91.6513 48.9954 91.4703 48.8742 91.2702 48.7932C91.0701 48.7123 90.8554 48.6733 90.6394 48.6787H87.4323V51.9668L90.6394 51.9642ZM90.2417 44.1235H87.4374V47.0221H90.2417C90.4315 47.0249 90.62 46.9891 90.7954 46.9169C90.9708 46.8447 91.1294 46.7376 91.2614 46.6022C91.3985 46.4681 91.5066 46.3076 91.5789 46.1306C91.6512 45.9536 91.6863 45.7638 91.682 45.5728C91.6913 45.3806 91.6609 45.1885 91.5925 45.0084C91.5241 44.8283 91.4192 44.664 91.2843 44.5257C91.152 44.3909 90.9933 44.2846 90.8179 44.2133C90.6425 44.1419 90.4541 44.1071 90.2646 44.1109L90.2417 44.1235ZM92.3576 47.6847C92.9482 47.8723 93.4536 48.26 93.7852 48.7799C94.1552 49.3306 94.3481 49.9797 94.3384 50.6414C94.3502 51.0523 94.2751 51.4611 94.1179 51.8414C93.9607 52.2217 93.7249 52.5651 93.4258 52.8495C93.1214 53.1396 92.7616 53.3665 92.3676 53.5167C91.9736 53.667 91.5533 53.7377 91.1314 53.7246H85.5483V42.3429H90.7515C91.1433 42.3315 91.5334 42.398 91.899 42.5382C92.2645 42.6785 92.5981 42.8899 92.8802 43.1599C93.16 43.4226 93.3808 43.7407 93.5284 44.0937C93.676 44.4467 93.747 44.8266 93.7368 45.2086C93.7357 45.7336 93.5931 46.2489 93.3238 46.7008C93.0965 47.1189 92.7509 47.4618 92.3296 47.6872" fill="black"/>
<path d="M97.7416 51.3876C97.9854 51.6345 98.2778 51.8293 98.6005 51.9598C98.9232 52.0903 99.2695 52.1538 99.6179 52.1463C99.9642 52.1548 100.308 52.0916 100.629 51.961C100.949 51.8304 101.239 51.6351 101.479 51.3876C101.723 51.1428 101.915 50.8515 102.043 50.5311C102.171 50.2107 102.232 49.868 102.223 49.5235C102.233 49.1778 102.172 48.8338 102.044 48.5121C101.916 48.1905 101.724 47.8978 101.479 47.6518C101.239 47.4043 100.949 47.209 100.629 47.0784C100.308 46.9477 99.9642 46.8846 99.6179 46.8931C99.2695 46.8856 98.9232 46.949 98.6005 47.0796C98.2778 47.2101 97.9854 47.4048 97.7416 47.6518C97.4931 47.8957 97.2972 48.1872 97.1658 48.5085C97.0343 48.8298 96.97 49.1743 96.9768 49.521C96.9689 49.8671 97.0327 50.2111 97.1643 50.5317C97.2958 50.8523 97.4923 51.1428 97.7416 51.385V51.3876ZM99.6179 53.9143C99.0202 53.931 98.4252 53.8276 97.8688 53.6103C97.3124 53.3929 96.806 53.0662 96.3802 52.6497C95.9562 52.2438 95.6218 51.755 95.398 51.2143C95.1742 50.6736 95.0659 50.0927 95.0801 49.5083C95.0661 48.924 95.1744 48.3431 95.3982 47.8024C95.622 47.2617 95.9564 46.7729 96.3802 46.367C96.806 45.9504 97.3124 45.6237 97.8688 45.4063C98.4252 45.189 99.0202 45.0856 99.6179 45.1023C100.424 45.0932 101.219 45.291 101.925 45.6765C102.606 46.0467 103.173 46.5952 103.562 47.2623C103.958 47.9439 104.163 48.7188 104.153 49.5058C104.163 50.2927 103.958 51.0677 103.562 51.7492C103.173 52.4163 102.606 52.9648 101.925 53.3351C101.219 53.7218 100.424 53.9196 99.6179 53.9092" fill="black"/>
<path d="M108.926 46.8678C108.659 46.8595 108.394 46.904 108.146 46.9986C107.897 47.0933 107.67 47.2363 107.478 47.4192C107.288 47.5957 107.138 47.81 107.038 48.048C106.938 48.286 106.89 48.5423 106.896 48.8001C106.89 49.0564 106.939 49.311 107.039 49.5472C107.139 49.7835 107.289 49.996 107.478 50.171C107.67 50.3539 107.897 50.4969 108.146 50.5915C108.394 50.6862 108.659 50.7307 108.926 50.7224C109.19 50.7301 109.453 50.685 109.7 50.5899C109.946 50.4947 110.171 50.3514 110.361 50.1685C110.548 49.9928 110.695 49.7803 110.795 49.5447C110.894 49.309 110.942 49.0555 110.937 48.8001C110.944 48.5427 110.896 48.2867 110.797 48.0488C110.698 47.8108 110.549 47.5963 110.361 47.4192C110.171 47.2367 109.946 47.0938 109.7 46.9991C109.453 46.9044 109.19 46.8597 108.926 46.8678ZM110.807 53.8081C111.546 53.7811 112.271 54.007 112.862 54.448C113.417 54.8786 113.782 55.5059 113.881 56.1982L111.949 56.7041C111.942 56.5451 111.899 56.3897 111.823 56.2495C111.747 56.1094 111.64 55.9881 111.511 55.8947C111.208 55.6834 110.843 55.5775 110.473 55.5937H107.559C106.898 55.6238 106.248 55.4134 105.731 55.0019C105.505 54.8124 105.324 54.5745 105.204 54.306C105.083 54.0374 105.026 53.7453 105.035 53.4515C105.034 53.0392 105.136 52.6331 105.334 52.2703C105.52 51.9183 105.802 51.6249 106.147 51.423C105.776 51.0916 105.482 50.6849 105.285 50.2305C105.087 49.7761 104.991 49.2848 105.002 48.79C104.991 48.2981 105.085 47.8094 105.28 47.3566C105.474 46.9039 105.764 46.4975 106.129 46.1647C106.887 45.4602 107.895 45.0812 108.933 45.11C109.603 45.1044 110.264 45.2561 110.863 45.5526C110.959 45.1211 111.216 44.7417 111.582 44.4903C111.983 44.2236 112.458 44.0882 112.941 44.1033H113.624V45.8181H113.04C112.806 45.81 112.575 45.8794 112.385 46.0154C112.3 46.0768 112.23 46.1555 112.179 46.2464C112.128 46.3372 112.097 46.4379 112.089 46.5415C112.609 47.1763 112.888 47.9721 112.877 48.79C112.887 49.2812 112.79 49.7688 112.594 50.2199C112.398 50.671 112.107 51.0752 111.74 51.4053C110.981 52.1088 109.974 52.4877 108.936 52.46C108.398 52.4672 107.864 52.3746 107.36 52.1868C107.22 52.2695 107.104 52.3874 107.025 52.5286C106.945 52.6698 106.904 52.8293 106.906 52.9911C106.904 53.1026 106.927 53.2132 106.975 53.3141C107.023 53.4151 107.094 53.5036 107.182 53.5729C107.388 53.7296 107.644 53.8093 107.903 53.798L110.807 53.8081Z" fill="black"/>
<path d="M116.362 51.3875C116.605 51.6342 116.897 51.8288 117.22 51.9593C117.542 52.0898 117.888 52.1535 118.236 52.1463C118.582 52.1548 118.927 52.0917 119.248 51.9611C119.569 51.8305 119.859 51.6352 120.099 51.3875C120.343 51.1423 120.534 50.8508 120.662 50.5305C120.789 50.2102 120.85 49.8677 120.841 49.5235C120.851 49.178 120.79 48.8342 120.662 48.5127C120.535 48.1911 120.343 47.8983 120.099 47.6518C119.859 47.4042 119.569 47.2089 119.248 47.0783C118.927 46.9477 118.582 46.8846 118.236 46.893C117.888 46.8849 117.541 46.948 117.219 47.0786C116.897 47.2091 116.605 47.4043 116.362 47.6518C116.113 47.8957 115.918 48.1872 115.786 48.5085C115.655 48.8298 115.59 49.1742 115.597 49.5209C115.589 49.867 115.653 50.2111 115.785 50.5317C115.916 50.8523 116.113 51.1428 116.362 51.385V51.3875ZM118.236 53.9143C117.638 53.9306 117.043 53.827 116.487 53.6096C115.93 53.3923 115.424 53.0658 114.998 52.6496C114.575 52.2433 114.241 51.7544 114.018 51.2137C113.794 50.6731 113.686 50.0924 113.7 49.5083C113.688 48.9271 113.796 48.3496 114.019 47.8118C114.241 47.2739 114.573 46.7873 114.993 46.3821C115.419 45.966 115.925 45.6394 116.482 45.4221C117.038 45.2048 117.633 45.1012 118.231 45.1175C119.037 45.1087 119.833 45.3065 120.54 45.6917C121.222 46.0619 121.788 46.6104 122.177 47.2775C122.572 47.9595 122.777 48.7342 122.768 49.5209C122.777 50.3077 122.572 51.0824 122.177 51.7644C121.788 52.4315 121.222 52.98 120.54 53.3502C119.833 53.7366 119.038 53.9344 118.231 53.9244" fill="black"/>
<path d="M128.823 46.9942H126.429V50.9728C126.417 51.1329 126.44 51.2936 126.495 51.4445C126.551 51.5953 126.638 51.7328 126.75 51.8479C127.006 52.0573 127.332 52.1622 127.663 52.1413C128.067 52.134 128.464 52.0345 128.823 51.8504V53.583C128.341 53.8186 127.81 53.9374 127.273 53.9295C126.381 53.9295 125.708 53.6942 125.251 53.2289C124.795 52.7635 124.571 52.1084 124.571 51.2712V46.9942H123.135V45.3199H124.571V43.1396H126.429V45.3199H128.823V46.9942Z" fill="black"/>
<path d="M137.172 42.052L135.077 44.3283H133.114L134.809 42.052H137.172ZM133.95 52.1412C134.296 52.1496 134.64 52.0865 134.961 51.9559C135.281 51.8253 135.571 51.63 135.811 51.3824C136.055 51.1377 136.247 50.8463 136.375 50.526C136.503 50.2056 136.564 49.8629 136.555 49.5184C136.565 49.1727 136.504 48.8287 136.376 48.507C136.248 48.1854 136.056 47.8927 135.811 47.6467C135.571 47.3992 135.281 47.2039 134.961 47.0733C134.64 46.9426 134.296 46.8795 133.95 46.8879C133.601 46.8801 133.254 46.9434 132.931 47.0739C132.608 47.2045 132.315 47.3994 132.071 47.6467C131.822 47.8908 131.626 48.1827 131.494 48.5045C131.363 48.8263 131.299 49.1712 131.306 49.5184C131.299 49.8643 131.364 50.208 131.495 50.5285C131.627 50.849 131.823 51.1396 132.071 51.3824C132.315 51.6298 132.608 51.8247 132.931 51.9552C133.254 52.0857 133.601 52.149 133.95 52.1412ZM136.555 45.3122H138.421V53.7195H136.555V52.5181C136.209 52.9708 135.759 53.3348 135.243 53.5799C134.726 53.825 134.158 53.9439 133.585 53.9269C132.833 53.9365 132.093 53.7377 131.449 53.3527C130.813 52.9712 130.295 52.4234 129.953 51.7694C129.587 51.0769 129.401 50.305 129.412 49.5234C129.401 48.7419 129.587 47.97 129.953 47.2775C130.297 46.6243 130.814 46.0769 131.449 45.6941C132.094 45.3103 132.833 45.1116 133.585 45.12C134.157 45.1014 134.725 45.219 135.242 45.4627C135.758 45.7065 136.209 46.0694 136.555 46.5212V45.3122Z" fill="black"/>
</svg>
